<svg id="레이어_1" data-name="레이어 1" xmlns="http://www.w3.org/2000/svg" xmlns:xlink="http://www.w3.org/1999/xlink" viewBox="0 0 708.66 175.59"><defs><style>.cls-1{fill:none;}.cls-2{clip-path:url(#clip-path);}.cls-3{fill:#5590cc;}.cls-4{fill:#14284f;}.cls-5{fill:#f26639;}.cls-6{fill:#fff;}</style><clipPath id="clip-path" transform="translate(-66.47 -54.35)"><rect class="cls-1" width="841.89" height="283.46"/></clipPath></defs><title>comistack_logo_white</title><g class="cls-2"><path class="cls-3" d="M82,125.14c8.36-10.67,20.63-20.63,47.83-22.82,21.22-1.35,42.62,8.3,55.46,24.47,8.41,10.59,12.78,24,13.15,37.52l27.25,13.34a2.44,2.44,0,0,1-.28,4.5l-32.73,11.32c-6.63,14.77-18.68,27.2-33.86,32.65-8.59,3.09-17.84,3.92-27,3.81-8.75-.12-23.78-4.22-31.55-8.26-17.21-9-29.66-21.18-33.1-43.68-2.73-17.87,2.07-36.61,14.8-52.85" transform="translate(-66.47 -54.35)"/><path class="cls-4" d="M82,101.22c8.36-10.67,20.63-20.63,47.83-22.82,21.22-1.35,42.62,8.3,55.46,24.47,8.41,10.58,12.78,24,13.15,37.52l27.25,13.33a2.45,2.45,0,0,1-.28,4.51l-32.73,11.32c-6.63,14.77-18.68,27.2-33.86,32.65-8.59,3.09-17.84,3.92-27,3.81-8.75-.12-23.78-4.22-31.55-8.26-17.21-9-29.66-21.18-33.1-43.68-2.73-17.87,2.07-36.62,14.8-52.85" transform="translate(-66.47 -54.35)"/><path class="cls-5" d="M82,77.3c8.36-10.67,20.63-20.63,47.83-22.83,21.22-1.34,42.62,8.31,55.46,24.48,8.41,10.58,12.78,24,13.15,37.52L225.7,129.8a2.45,2.45,0,0,1-.28,4.51l-32.73,11.32c-6.63,14.77-18.68,27.2-33.86,32.65-8.59,3.08-17.84,3.92-27,3.8-8.75-.11-23.78-4.22-31.55-8.26-17.21-8.95-29.66-21.18-33.1-43.67C64.48,112.28,69.28,93.53,82,77.3" transform="translate(-66.47 -54.35)"/><path class="cls-6" d="M152.74,156.69c-13.71,1.12-28.12-7.23-33.87-19.74a7.93,7.93,0,0,1-.74-5.65,7.47,7.47,0,0,1,3.37-4.38c3.22-1.7,8.32-1.09,10,2.63a26.39,26.39,0,0,0,1.91,3.5c.22.33.45.65.68,1,.56.81-.27-.36-.42-.53.44.49.84,1,1.29,1.52a32.71,32.71,0,0,0,2.9,2.74c1.12,1-1.43-1-.22-.17l.65.47c.6.41,1.22.81,1.86,1.18s1.16.65,1.75.95l.91.43c1.13.53-1.31-.51-.47-.2a32.24,32.24,0,0,0,3.8,1.21c.65.16,1.3.29,2,.4,1.24.21-.16.07-.57-.07a4.68,4.68,0,0,0,1,.1,27.91,27.91,0,0,0,4.19,0c3.83-.31,7.5,3.59,7.33,7.33-.19,4.24-3.23,7-7.33,7.33" transform="translate(-66.47 -54.35)"/><path class="cls-6" d="M179.23,101.63c.19,1,.31,2,.44,3q.08.6.12,1.2a18.74,18.74,0,0,1,0,2.37,8.12,8.12,0,0,1-2.15,5.18,8.07,8.07,0,0,1-5.18,2.15l-2-.26a7.3,7.3,0,0,1-3.23-1.89c-.38-.49-.76-1-1.15-1.48a7.39,7.39,0,0,1-1-3.7,17.75,17.75,0,0,0-.12-3.57c.09.65.18,1.29.26,1.94,0-.35-.1-.7-.17-1.06a5.47,5.47,0,0,1-.13-2.92,5.37,5.37,0,0,1,.87-2.72,8.09,8.09,0,0,1,4.38-3.37l1.94-.26a7.26,7.26,0,0,1,3.7,1l1.49,1.14a7.47,7.47,0,0,1,1.88,3.24" transform="translate(-66.47 -54.35)"/><path class="cls-6" d="M155.46,101.83l.36,6.09a5.67,5.67,0,0,1-.63,2.82,5.56,5.56,0,0,1-1.52,2.36,5.47,5.47,0,0,1-2.36,1.52,5.57,5.57,0,0,1-2.82.63l-2-.26a7.3,7.3,0,0,1-3.23-1.89c-.39-.49-.77-1-1.15-1.48a7.31,7.31,0,0,1-1-3.7q-.18-3-.35-6.09A8.19,8.19,0,0,1,143,96.65a8.19,8.19,0,0,1,5.18-2.14l2,.26a7.37,7.37,0,0,1,3.24,1.88l1.14,1.49a7.15,7.15,0,0,1,1,3.69" transform="translate(-66.47 -54.35)"/><path class="cls-6" d="M562.82,145.67H547a4.31,4.31,0,0,1-4.26-3.35,4.24,4.24,0,0,1,4.14-5.12h20.18a5.75,5.75,0,1,0,0-11.5H547.33c-8.18,0-15.35,6.07-16.12,14.22a15.75,15.75,0,0,0,15.66,17.24h15.82a4.33,4.33,0,0,1,4.27,3.35,4.24,4.24,0,0,1-4.14,5.12H536.89a5.75,5.75,0,0,0,0,11.5h25.47c8.18,0,15.35-6.07,16.11-14.22a15.74,15.74,0,0,0-15.65-17.24" transform="translate(-66.47 -54.35)"/><path class="cls-6" d="M298.14,137.48a14.22,14.22,0,0,1,11,2.28,5.66,5.66,0,0,0,6.79-.28,5.73,5.73,0,0,0-.18-9.13A25.61,25.61,0,0,0,300,125.72a25.71,25.71,0,0,0,1,51.41,25.52,25.52,0,0,0,15.1-4.91,5.45,5.45,0,0,0,.13-8.63l-.48-.38a5.55,5.55,0,0,0-6.65-.13,14.06,14.06,0,0,1-8.1,2.55,14.22,14.22,0,0,1-2.85-28.15" transform="translate(-66.47 -54.35)"/><path class="cls-6" d="M501.9,137.48a14.22,14.22,0,0,1,11,2.28,5.66,5.66,0,0,0,6.79-.28,5.73,5.73,0,0,0-.18-9.13,25.61,25.61,0,0,0-15.71-4.63,25.71,25.71,0,0,0,1,51.41,25.52,25.52,0,0,0,15.1-4.91,5.45,5.45,0,0,0,.13-8.63l-.48-.38a5.55,5.55,0,0,0-6.65-.13,14.06,14.06,0,0,1-8.1,2.55,14.22,14.22,0,0,1-2.85-28.15" transform="translate(-66.47 -54.35)"/><path class="cls-6" d="M703.19,137.48a14.21,14.21,0,0,1,11,2.28,5.75,5.75,0,0,0,6.61-9.41,25.55,25.55,0,0,0-15.69-4.63,25.71,25.71,0,0,0,.95,51.41,25.58,25.58,0,0,0,15.1-4.9,5.45,5.45,0,0,0,.13-8.63l-.48-.39a5.53,5.53,0,0,0-6.65-.12,14.22,14.22,0,1,1-10.94-25.61" transform="translate(-66.47 -54.35)"/><path class="cls-6" d="M352.82,125.37a25.88,25.88,0,1,0,25.88,25.88,25.91,25.91,0,0,0-25.88-25.88m0,40.26a14.39,14.39,0,1,1,14.38-14.38,14.4,14.4,0,0,1-14.38,14.38" transform="translate(-66.47 -54.35)"/><path class="cls-6" d="M432.22,125.76a19.07,19.07,0,0,0-14.85,5.43,19.1,19.1,0,0,0-14.85-5.43c-10.07.75-17.69,9.5-17.69,19.61v26a5.75,5.75,0,1,0,11.5,0V145.11a7.81,7.81,0,0,1,6.64-7.84,7.65,7.65,0,0,1,8.65,7.57v26.54a5.75,5.75,0,0,0,11.5,0V145.11a7.81,7.81,0,0,1,6.63-7.84,7.65,7.65,0,0,1,8.66,7.57v26.54a5.75,5.75,0,1,0,11.49,0v-26c0-10.1-7.61-18.85-17.68-19.6" transform="translate(-66.47 -54.35)"/><path class="cls-6" d="M464.47,177.13h0a5.76,5.76,0,0,0,5.75-5.75v-40.1a5.75,5.75,0,0,0-11.5,0v40.1a5.75,5.75,0,0,0,5.75,5.75" transform="translate(-66.47 -54.35)"/><path class="cls-6" d="M464.6,107.16a5.88,5.88,0,1,0,5.87,5.88,5.88,5.88,0,0,0-5.87-5.88" transform="translate(-66.47 -54.35)"/><path class="cls-6" d="M602.24,158.74V137.2h8.3a5.75,5.75,0,0,0,0-11.5h-8.3V119a5.75,5.75,0,1,0-11.5,0v6.69h-6.27a5.75,5.75,0,0,0,0,11.5h6.27v21.54a18.39,18.39,0,0,0,18.39,18.39h1.57a5.75,5.75,0,0,0,0-11.5h-1.57a6.88,6.88,0,0,1-6.89-6.89" transform="translate(-66.47 -54.35)"/><path class="cls-6" d="M648.3,125.37a25.88,25.88,0,1,0,14.38,47.38,4.38,4.38,0,0,0,4.38,4.38h2.74a4.38,4.38,0,0,0,4.38-4.38V150.59h0a25.89,25.89,0,0,0-25.85-25.22m2.44,40.06a14.39,14.39,0,1,1,11.74-11.74,14.4,14.4,0,0,1-11.74,11.74" transform="translate(-66.47 -54.35)"/><path class="cls-6" d="M732.28,112.91v58.47a5.75,5.75,0,0,0,11.5,0V112.91a5.75,5.75,0,1,0-11.5,0" transform="translate(-66.47 -54.35)"/><path class="cls-6" d="M769.37,129.21h0a5.74,5.74,0,0,0-4.13,1.76l-21.46,22.2,21.46,22.2a5.75,5.75,0,1,0,8.27-8l-13.74-14.21L773.51,139a5.76,5.76,0,0,0-4.14-9.75" transform="translate(-66.47 -54.35)"/></g></svg>